<svg id="b4ba6a13-192d-4e96-bcc5-40ea44a2cfa7" data-name="Layer 1" xmlns="http://www.w3.org/2000/svg" xmlns:xlink="http://www.w3.org/1999/xlink" width="584.05611" height="561.04229" viewBox="0 0 584.05611 561.04229"><defs><linearGradient id="b9f26670-a054-47e0-b547-d63dd4bba499" x1="103.14387" y1="141.41475" x2="103.14387" y2="92.32602" gradientUnits="userSpaceOnUse"><stop offset="0" stop-color="gray" stop-opacity="0.25"/><stop offset="0.53514" stop-color="gray" stop-opacity="0.12"/><stop offset="1" stop-color="gray" stop-opacity="0.1"/></linearGradient><linearGradient id="fda278c0-f004-4f31-a08f-9ec9a798ec33" x1="172.38839" y1="183.73084" x2="172.38839" y2="134.64211" xlink:href="#b9f26670-a054-47e0-b547-d63dd4bba499"/><linearGradient id="f67aa2b7-cb27-460f-a466-f98060ba594a" x1="249.32674" y1="129.874" x2="249.32674" y2="80.78527" xlink:href="#b9f26670-a054-47e0-b547-d63dd4bba499"/><linearGradient id="be4a3ce0-b0a5-48d5-b804-ddb9be0ae4c0" x1="171.3198" y1="49.30245" x2="171.3198" y2="0.21372" xlink:href="#b9f26670-a054-47e0-b547-d63dd4bba499"/><linearGradient id="a3fa23d5-1a43-4f1f-9282-9d91364efc6f" x1="94.59517" y1="49.08873" x2="94.59517" y2="0" xlink:href="#b9f26670-a054-47e0-b547-d63dd4bba499"/><linearGradient id="abfe9611-1bc1-4024-84cf-bcf073d6939b" x1="25.35065" y1="91.40482" x2="25.35065" y2="42.31609" xlink:href="#b9f26670-a054-47e0-b547-d63dd4bba499"/><linearGradient id="e0ca0a80-8143-4172-ae1f-6453e4098dea" x1="656.58307" y1="730.52114" x2="656.58307" y2="220.55663" xlink:href="#b9f26670-a054-47e0-b547-d63dd4bba499"/></defs><title>Brainstorming</title><path d="M422.556,373.52114h.00032A161.49984,161.49984,0,0,1,584.05611,535.021v2.50016a0,0,0,0,1,0,0h-323a0,0,0,0,1,0,0V535.021A161.49984,161.49984,0,0,1,422.556,373.52114Z" fill="#4caf50"/><rect x="77.79322" y="92.32602" width="50.70131" height="49.08873" fill="url(#b9f26670-a054-47e0-b547-d63dd4bba499)"/><rect x="78.66627" y="93.1713" width="48.9552" height="47.39816" fill="#f5f5f5"/><rect x="147.03773" y="134.64211" width="50.70131" height="49.08873" fill="url(#fda278c0-f004-4f31-a08f-9ec9a798ec33)"/><rect x="147.91079" y="135.4874" width="48.9552" height="47.39816" fill="#f5f5f5"/><rect x="223.97608" y="80.78527" width="50.70131" height="49.08873" fill="url(#f67aa2b7-cb27-460f-a466-f98060ba594a)"/><rect x="224.84914" y="81.63055" width="48.9552" height="47.39816" fill="#f5f5f5"/><rect x="145.96915" y="0.21372" width="50.70131" height="49.08873" fill="url(#be4a3ce0-b0a5-48d5-b804-ddb9be0ae4c0)"/><rect x="146.8422" y="1.059" width="48.9552" height="47.39816" fill="#7cfcff"/><rect x="69.24451" width="50.70131" height="49.08873" fill="url(#a3fa23d5-1a43-4f1f-9282-9d91364efc6f)"/><rect x="70.11757" y="0.84529" width="48.9552" height="47.39816" fill="#ffffa5"/><rect y="42.31609" width="50.70131" height="49.08873" fill="url(#abfe9611-1bc1-4024-84cf-bcf073d6939b)"/><rect x="0.87305" y="43.16138" width="48.9552" height="47.39816" fill="#ff69b4"/><path d="M810.40779,351.00588c-1.03955-4.26-3.01806-8.22515-4.43725-12.37408a60.06393,60.06393,0,0,1-3.00537-18.58875c-.01807-10.2586,1.804-20.73,3.44946-30.91119,1.36938-8.47211,2.54492-17.27069,2.405-25.86493-.01856-8.94781-1.38819-17.70361-5.39771-25.66766-4.42846-8.79694-12.71582-16.33264-22.54248-16.99286-9.33887-.62744-17.957,4.85675-27.20093,6.32587-9.11377,1.44842-18.42358-1.064-27.62695-.38794a40.314,40.314,0,0,0-23.68335,10.03906c-5.05493,4.51025-9.05884,10.7229-9.1355,17.49689-.00268.2536.01636.48877.0232.73449-.00635.1626-.02124.32379-.0232.48706-.11743,10.3877,7.76392,14.11066,16.84009,15.65345a36.657,36.657,0,0,0,31.398,41.80481q.65846,1.187,1.2832,2.43383c.10157,1.27912.16846,2.561.1814,3.84735a53.04382,53.04382,0,0,1-4.436,20.26246,26.27287,26.27287,0,0,1-5.93334,2.79516l-23.209,26.87335a38.08794,38.08794,0,0,0-6.12793,7.4195q-1.16088.65167-2.3335,1.27008.67311.1767,1.34571.35339c-.03809.066-.07544.13477-.11328.20142-.4104.22326-.81983.45025-1.23243.66675l.75147.19732a31.18812,31.18812,0,0,0-3.89307,15.58686,29.93042,29.93042,0,0,0,3.66309,14.6148,76.115,76.115,0,0,1,4.10547,9.55561l-7.77,12.4317-26.24561,38.93109L651.335,474.02285a56.52326,56.52326,0,0,0-13.60108-.007l4.16285-7.84906a2.00039,2.00039,0,1,0-3.59229-1.76117l-5.553,10.47022c-6.28808,1.428-12.86914,4.35254-17.45141,10.14068-4.9773,6.287.0476,8.41516,7.40771,8.79731l-.76636,1.44494a1.99665,1.99665,0,0,0,.24659,2.13788c-.94385.25861-1.95069.55353-2.99878.88355h-16.7837v7.9497c-4.80883,3.38715-8.93945,7.785-11.04028,13.445-13.39648,11.35657-14.543,33.13586-14.543,33.13586L534.06917,678.01638s-.9292,1.39252-2.32666,3.64752c-11.74756,7.45-35.15381,36.7547-29.01294,48.85718v.00006l25.78027-13.08087c.4209.177.67334.27545.67334.27545l1.87769-1.56982,51.9353-26.352-11.53076-23.27838-1.596.5957c-.47021-2.33795-.27881-4.5011,1.45606-5.58539,2.83349-1.77093,20.866-36.19934,35.51684-64.81341,5.12158,15.29773,15.801,50.8717,10.7898,68.15918L615.721,666.2972c-9.06616,8.49982-25.11108,45.96113-15.40673,56.31226v.00006l26.05883-24.43078,20.07569-18.33008.38525-.8526,19.14356-17.94776-17.58448-19.12164-2.74487,2.04742c-1.59106-4.697-4.8855-15.33172-3.47461-19.09375,1.44165-3.845,5.14331-41.65142-.63232-67.58923l4.13965-.276c14.36889,18.76062,31.73779,35.45032,36.80273,36.71649a3.83792,3.83792,0,0,0,1.51831.05341c9.84106,1.58105,27.7981-37.92047,27.7981-37.92047H761.8824c44.08985-6.29859,36.793-41.75489,27.92749-63.29908.272.12818.53443.258.77808.39093,0,0-.10352-.47467-.27735-1.36334.0918.04737.18946.09375.27735.14179a218.15427,218.15427,0,0,1-4.08814-41.13245,154.14752,154.14752,0,0,1,2.58667-28.6629c3.48023,6.10205,8.86328,11.25537,15.6958,12.11035a499.59539,499.59539,0,0,0,6.58179-66.981c.04834-1.58551.08325-3.17773.07739-4.76813A45.69569,45.69569,0,0,0,810.40779,351.00588ZM681.262,490.14211l2.60938-2.9591c12.0437-1.65412,24.3811-3.58338,32.61279-5.47754a33.41025,33.41025,0,0,1-10.65064,9.3197C699.57893,490.63754,690.83064,490.22085,681.262,490.14211Zm30.91406-35.05719L709.357,463.0292l-5.02612.95233ZM627.21126,493.857a127.4188,127.4188,0,0,0,13.98071-1.28284c-.09277.07587-.18359.15418-.2749.23163a68.09755,68.09755,0,0,0-11.06323,2.89923l-.00025-.00036s-1.55029.22375-4.03882.78564Z" transform="translate(-307.97194 -169.47886)" fill="url(#e0ca0a80-8143-4172-ae1f-6453e4098dea)"/><path d="M624.15451,497.074h0a1.92345,1.92345,0,0,1-.88034-2.57378l15.73358-29.6663a1.92345,1.92345,0,0,1,2.57378-.88035h0a1.92345,1.92345,0,0,1,.88035,2.57378l-15.73358,29.6663A1.92346,1.92346,0,0,1,624.15451,497.074Z" transform="translate(-307.97194 -169.47886)" fill="#4d8af0"/><path d="M630.882,494.92894s-42.76964,6.16639-38.07153,35.5296l13.50708,54.61557s19.967,53.44105,12.33255,73.9953c0,0-7.63444,32.8868-15.26887,31.71227s16.4434,5.87264,16.4434,5.87264l27.01415-24.6651,8.2217-18.20519s2.34906-5.28538-8.2217-14.09434c0,0-5.87264-15.85614-4.11085-20.55425s7.03632-62.13616-7.34623-81.86643Z" transform="translate(-307.97194 -169.47886)" fill="#be7c5e"/><path d="M630.882,494.92894s-42.76964,6.16639-38.07153,35.5296l13.50708,54.61557s19.967,53.44105,12.33255,73.9953c0,0-7.63444,32.8868-15.26887,31.71227s16.4434,5.87264,16.4434,5.87264l27.01415-24.6651,8.2217-18.20519s2.34906-5.28538-8.2217-14.09434c0,0-5.87264-15.85614-4.11085-20.55425s7.03632-62.13616-7.34623-81.86643Z" transform="translate(-307.97194 -169.47886)" opacity="0.1"/><path d="M602.47892,713.10515l63.13737-59.193L648.70836,635.526l-31.41548,23.43308c-8.71745,8.17284-24.14514,44.19308-14.814,54.146Z" transform="translate(-307.97194 -169.47886)" fill="#f5f5f5"/><path d="M713.19963,491.11184s-63.42454-5.87265-85.74058,5.28537c0,0-1.76179,9.39623,7.63444,20.55425S713.19963,491.11184,713.19963,491.11184Z" transform="translate(-307.97194 -169.47886)" fill="#333"/><path d="M713.19963,491.11184s-63.42454-5.87265-85.74058,5.28537c0,0-1.76179,9.39623,7.63444,20.55425S713.19963,491.11184,713.19963,491.11184Z" transform="translate(-307.97194 -169.47886)" opacity="0.3"/><rect x="296.51788" y="327.92654" width="61.05612" height="8.52682" fill="#e0e0e0"/><path d="M643.31519,508.72976s-34.06133-2.349-48.15567,8.2217-15.26887,32.8868-15.26887,32.8868l-41.1085,120.38917s-12.77988,19.12737-14.6816,30.53774c-.58727,3.52359,9.98349,7.63444,9.98349,7.63444l35.82312-29.95048,7.04717-9.98349s-7.04717-11.158-2.34906-14.09434,52.85378-99.24766,52.85378-99.24766l61.66275-4.11085Z" transform="translate(-307.97194 -169.47886)" fill="#be7c5e"/><path d="M775.44964,475.843s42.87029,68.12266-18.79245,76.93162H708.50152S690.88359,591.534,681.48736,589.185s-62.83727-59.901-54.61557-80.4552l75.75709-17.61792s14.09434-6.45991,15.26887-19.37972Z" transform="translate(-307.97194 -169.47886)" opacity="0.1"/><path d="M776.62417,475.843s42.87029,68.12266-18.79245,76.93162H709.67605S692.05812,591.534,682.66189,589.185s-62.83727-59.901-54.61557-80.4552l75.75709-17.61792s14.09434-6.45991,15.26887-19.37972Z" transform="translate(-307.97194 -169.47886)" fill="#333"/><path d="M508.6481,720.71242l77.179-39.16053L574.73962,659.169l-36.7177,13.70592c-10.65619,5.40694-35.54708,35.671-29.37383,47.83747Z" transform="translate(-307.97194 -169.47886)" fill="#f5f5f5"/><path d="M710.85058,409.48211,696.169,432.97267l-35.23585,52.26652s-28.776,1.17453-25.25237,24.07784,37.58491-11.74529,37.58491-11.74529l56.96464-64.59907Z" transform="translate(-307.97194 -169.47886)" fill="#be7c5e"/><path d="M710.85058,409.48211,696.169,432.97267l-35.23585,52.26652s-28.776,1.17453-25.25237,24.07784,37.58491-11.74529,37.58491-11.74529l56.96464-64.59907Z" transform="translate(-307.97194 -169.47886)" opacity="0.1"/><circle cx="434.88453" cy="114.62233" r="35.23585" fill="#be7c5e"/><path d="M725.53218,302.6s31.125,28.18869,13.50708,56.96463,43.45755-19.37972,43.45755-19.37972-21.14151-35.23585-16.44339-56.37736Z" transform="translate(-307.97194 -169.47886)" fill="#be7c5e"/><path d="M749.02275,331.96322s-8.2217,12.91982-19.37972,16.4434l-22.316,25.83963s-18.79246,16.4434-7.63443,37.58491,17.61792,73.408,17.61792,73.408,55.20284,0,68.12266,7.04717c0,0-11.158-51.092,4.11085-86.9151s-11.74529-85.15332-11.74529-85.15332Z" transform="translate(-307.97194 -169.47886)" opacity="0.1"/><path d="M749.02275,330.7887s-8.2217,12.91981-19.37972,16.44339l-22.316,25.83963s-18.79246,16.4434-7.63443,37.58491,17.61792,73.408,17.61792,73.408,55.20284,0,68.12266,7.04718c0,0-11.158-51.092,4.11085-86.91511s-11.74529-85.15332-11.74529-85.15332Z" transform="translate(-307.97194 -169.47886)" fill="#f55f44"/><path d="M771.92606,389.51512s-40.52124,83.97879-49.3302,89.26417-75.75709,12.33255-75.75709,12.33255-41.10849,7.63443-29.95047-6.45991,34.64859-10.57076,34.64859-10.57076l55.7901-10.57075,32.29953-91.026Z" transform="translate(-307.97194 -169.47886)" fill="#be7c5e"/><path d="M753.72087,349.58115s-32.29954,19.37972-25.83963,36.99765c0,0,36.99765-5.28538,49.91746,19.37972,0,0,20.55425-22.90331,4.69811-47.5684C782.49681,358.39012,773.68785,342.534,753.72087,349.58115Z" transform="translate(-307.97194 -169.47886)" opacity="0.1"/><path d="M753.72087,348.40662s-32.29954,19.37972-25.83963,36.99765c0,0,36.99765-5.28538,49.91746,19.37972,0,0,20.55425-22.9033,4.69811-47.5684C782.49681,357.21559,773.68785,341.35945,753.72087,348.40662Z" transform="translate(-307.97194 -169.47886)" fill="#f55f44"/><path d="M726.93473,280.45094a3.91216,3.91216,0,0,1,4.09467,3.86q2.2018,8.42881,4.40363,16.85763c2.09357,8.01444,4.20159,16.13642,4.19637,24.41978-.01546,24.49925-18.74407,45.6301-40.43828,57.01318l22.20245,5.83209a17.14521,17.14521,0,0,0,6.74292.83634,14.19117,14.19117,0,0,0,5.26142-2.17091c9.43843-5.78144,16.20787-15.20164,20.68042-25.32612s6.85315-21.02553,9.20628-31.84088a106.11975,106.11975,0,0,1,13.20981,42.24161c1.492,16.13077-.623,33.05723,5.61389,48.00811,3.08917,7.40521,9.01145,14.46777,16.97309,15.46407a480.37851,480.37851,0,0,0,6.3285-64.40434c.14589-4.77974.21379-9.62483-.91958-14.27054-.99929-4.0961-2.90185-7.90876-4.26637-11.89808-5.319-15.55067-2.19531-32.54565.42707-48.77027s4.51276-33.69586-2.87757-48.37572c-4.2583-8.4585-12.22669-15.70431-21.67531-16.33914-8.97958-.60332-17.26645,4.66991-26.15472,6.08251-8.76309,1.3927-17.71491-1.02311-26.56413-.373a38.76365,38.76365,0,0,0-22.7724,9.65287c-4.86042,4.33671-8.71024,10.31036-8.78391,16.82381C691.6247,281.30329,715.11008,279.10448,726.93473,280.45094Z" transform="translate(-307.97194 -169.47886)" fill="#333" opacity="0.1"/><path d="M726.93473,279.27641a3.91216,3.91216,0,0,1,4.09467,3.86q2.2018,8.42881,4.40363,16.85763c2.09357,8.01444,4.20159,16.13642,4.19637,24.41979-.01546,24.49924-18.74407,45.63009-40.43828,57.01317l22.20245,5.83209a17.14541,17.14541,0,0,0,6.74292.83635,14.19136,14.19136,0,0,0,5.26142-2.17092c9.43843-5.78143,16.20787-15.20164,20.68042-25.32612s6.85315-21.02553,9.20628-31.84087a106.11971,106.11971,0,0,1,13.20981,42.2416c1.492,16.13077-.623,33.05723,5.61389,48.00811,3.08917,7.40522,9.01145,14.46777,16.97309,15.46407a480.37834,480.37834,0,0,0,6.3285-64.40434c.14589-4.77974.21379-9.62483-.91958-14.27054-.99929-4.0961-2.90185-7.90876-4.26637-11.89808-5.319-15.55067-2.19531-32.54565.42707-48.77027s4.51276-33.69586-2.87757-48.37572c-4.2583-8.4585-12.22669-15.70431-21.67531-16.33914-8.97958-.60331-17.26645,4.66991-26.15472,6.08251-8.76309,1.39271-17.71491-1.02311-26.56413-.373a38.76378,38.76378,0,0,0-22.7724,9.65287c-4.86042,4.33671-8.71024,10.31036-8.78391,16.82381C691.6247,280.12876,715.11008,277.93,726.93473,279.27641Z" transform="translate(-307.97194 -169.47886)" fill="#333"/></svg>